<svg xmlns="http://www.w3.org/2000/svg" xmlns:xlink="http://www.w3.org/1999/xlink" width="500" zoomAndPan="magnify" viewBox="0 0 375 374.999991" height="500" preserveAspectRatio="xMidYMid meet"><defs><g></g></defs><rect x="-37.5" width="450" fill="#ffffff" y="-37.499999" height="449.999989" fill-opacity="1"></rect><rect x="-37.5" width="450" fill="#ffffff" y="-37.499999" height="449.999989" fill-opacity="1"></rect><g fill="#000000" fill-opacity="1"><g transform="translate(35.242825, 192.449987)"><g><path d="M 16.4375 -25.4375 C 18.113281 -25.4375 19.523438 -25.316406 20.671875 -25.078125 C 21.828125 -24.835938 22.976562 -24.425781 24.125 -23.84375 C 24.3125 -23.738281 24.414062 -23.644531 24.4375 -23.5625 C 24.46875 -23.476562 24.507812 -23.273438 24.5625 -22.953125 L 25.046875 -18.203125 C 25.046875 -18.117188 24.96875 -18.070312 24.8125 -18.0625 C 24.664062 -18.050781 24.582031 -18.082031 24.5625 -18.15625 C 23.332031 -22.613281 20.582031 -24.84375 16.3125 -24.84375 C 14.070312 -24.84375 12.097656 -24.347656 10.390625 -23.359375 C 8.691406 -22.367188 7.375 -20.960938 6.4375 -19.140625 C 5.507812 -17.316406 5.046875 -15.191406 5.046875 -12.765625 C 5.046875 -10.441406 5.554688 -8.3125 6.578125 -6.375 C 7.609375 -4.445312 8.992188 -2.921875 10.734375 -1.796875 C 12.484375 -0.679688 14.382812 -0.125 16.4375 -0.125 C 18.625 -0.125 20.394531 -0.65625 21.75 -1.71875 C 23.113281 -2.78125 24.15625 -4.40625 24.875 -6.59375 C 24.875 -6.65625 24.941406 -6.6875 25.078125 -6.6875 C 25.265625 -6.6875 25.359375 -6.644531 25.359375 -6.5625 L 24.953125 -2.15625 C 24.929688 -1.84375 24.894531 -1.644531 24.84375 -1.5625 C 24.789062 -1.476562 24.679688 -1.382812 24.515625 -1.28125 C 23.128906 -0.613281 21.828125 -0.148438 20.609375 0.109375 C 19.398438 0.378906 18.007812 0.515625 16.4375 0.515625 C 13.632812 0.515625 11.132812 -0.0351562 8.9375 -1.140625 C 6.738281 -2.242188 5.023438 -3.796875 3.796875 -5.796875 C 2.566406 -7.796875 1.953125 -10.09375 1.953125 -12.6875 C 1.953125 -15.1875 2.578125 -17.398438 3.828125 -19.328125 C 5.085938 -21.265625 6.816406 -22.765625 9.015625 -23.828125 C 11.210938 -24.898438 13.6875 -25.4375 16.4375 -25.4375 Z M 16.4375 -25.4375 "></path></g></g></g><g fill="#000000" fill-opacity="1"><g transform="translate(67.320097, 192.449987)"><g><path d="M 28.875 -0.484375 C 28.957031 -0.484375 29 -0.398438 29 -0.234375 C 29 -0.078125 28.957031 0 28.875 0 C 28.050781 0 27.398438 -0.015625 26.921875 -0.046875 L 24.15625 -0.078125 L 21.203125 -0.046875 C 20.742188 -0.015625 20.113281 0 19.3125 0 C 19.238281 0 19.203125 -0.078125 19.203125 -0.234375 C 19.203125 -0.398438 19.238281 -0.484375 19.3125 -0.484375 C 20.351562 -0.484375 21.113281 -0.546875 21.59375 -0.671875 C 22.070312 -0.804688 22.398438 -1.066406 22.578125 -1.453125 C 22.753906 -1.847656 22.84375 -2.441406 22.84375 -3.234375 L 22.84375 -12.59375 L 7.484375 -12.59375 L 7.484375 -3.234375 C 7.484375 -2.441406 7.566406 -1.847656 7.734375 -1.453125 C 7.910156 -1.066406 8.238281 -0.804688 8.71875 -0.671875 C 9.195312 -0.546875 9.957031 -0.484375 11 -0.484375 C 11.050781 -0.484375 11.078125 -0.398438 11.078125 -0.234375 C 11.078125 -0.078125 11.050781 0 11 0 C 10.175781 0 9.523438 -0.015625 9.046875 -0.046875 L 6.15625 -0.078125 L 3.40625 -0.046875 C 2.925781 -0.015625 2.257812 0 1.40625 0 C 1.34375 0 1.3125 -0.078125 1.3125 -0.234375 C 1.3125 -0.398438 1.34375 -0.484375 1.40625 -0.484375 C 2.414062 -0.484375 3.164062 -0.546875 3.65625 -0.671875 C 4.15625 -0.804688 4.488281 -1.066406 4.65625 -1.453125 C 4.832031 -1.847656 4.921875 -2.441406 4.921875 -3.234375 L 4.921875 -21.765625 C 4.921875 -22.554688 4.832031 -23.140625 4.65625 -23.515625 C 4.488281 -23.890625 4.160156 -24.148438 3.671875 -24.296875 C 3.191406 -24.441406 2.445312 -24.515625 1.4375 -24.515625 C 1.382812 -24.515625 1.359375 -24.59375 1.359375 -24.75 C 1.359375 -24.914062 1.382812 -25 1.4375 -25 L 3.484375 -24.953125 C 4.597656 -24.898438 5.488281 -24.875 6.15625 -24.875 C 6.925781 -24.875 7.898438 -24.898438 9.078125 -24.953125 L 11 -25 C 11.050781 -25 11.078125 -24.914062 11.078125 -24.75 C 11.078125 -24.59375 11.050781 -24.515625 11 -24.515625 C 9.988281 -24.515625 9.234375 -24.4375 8.734375 -24.28125 C 8.242188 -24.125 7.910156 -23.847656 7.734375 -23.453125 C 7.566406 -23.066406 7.484375 -22.476562 7.484375 -21.6875 L 7.484375 -13.4375 L 22.84375 -13.4375 L 22.84375 -21.6875 C 22.84375 -22.476562 22.753906 -23.066406 22.578125 -23.453125 C 22.398438 -23.847656 22.070312 -24.125 21.59375 -24.28125 C 21.113281 -24.4375 20.351562 -24.515625 19.3125 -24.515625 C 19.238281 -24.515625 19.203125 -24.59375 19.203125 -24.75 C 19.203125 -24.914062 19.238281 -25 19.3125 -25 L 21.203125 -24.953125 C 22.367188 -24.898438 23.351562 -24.875 24.15625 -24.875 C 24.875 -24.875 25.796875 -24.898438 26.921875 -24.953125 L 28.875 -25 C 28.957031 -25 29 -24.914062 29 -24.75 C 29 -24.59375 28.957031 -24.515625 28.875 -24.515625 C 27.863281 -24.515625 27.117188 -24.441406 26.640625 -24.296875 C 26.160156 -24.148438 25.832031 -23.890625 25.65625 -23.515625 C 25.488281 -23.140625 25.40625 -22.554688 25.40625 -21.765625 L 25.40625 -3.234375 C 25.40625 -2.441406 25.488281 -1.847656 25.65625 -1.453125 C 25.832031 -1.066406 26.160156 -0.804688 26.640625 -0.671875 C 27.117188 -0.546875 27.863281 -0.484375 28.875 -0.484375 Z M 28.875 -0.484375 "></path></g></g></g><g fill="#000000" fill-opacity="1"><g transform="translate(102.317077, 192.449987)"><g><path d="M 19 -5.953125 C 19 -6.015625 19.050781 -6.046875 19.15625 -6.046875 C 19.238281 -6.046875 19.3125 -6.03125 19.375 -6 C 19.445312 -5.96875 19.484375 -5.925781 19.484375 -5.875 C 19.242188 -4.195312 19.125 -2.4375 19.125 -0.59375 C 19.125 -0.382812 19.078125 -0.234375 18.984375 -0.140625 C 18.890625 -0.046875 18.722656 0 18.484375 0 L 1.71875 0 C 1.664062 0 1.640625 -0.078125 1.640625 -0.234375 C 1.640625 -0.398438 1.664062 -0.484375 1.71875 -0.484375 C 2.726562 -0.484375 3.46875 -0.546875 3.9375 -0.671875 C 4.40625 -0.804688 4.722656 -1.066406 4.890625 -1.453125 C 5.066406 -1.847656 5.15625 -2.441406 5.15625 -3.234375 L 5.15625 -21.765625 C 5.15625 -22.554688 5.066406 -23.140625 4.890625 -23.515625 C 4.722656 -23.890625 4.40625 -24.148438 3.9375 -24.296875 C 3.46875 -24.441406 2.726562 -24.515625 1.71875 -24.515625 C 1.664062 -24.515625 1.640625 -24.59375 1.640625 -24.75 C 1.640625 -24.914062 1.664062 -25 1.71875 -25 L 17.796875 -25 C 18.035156 -25 18.15625 -24.878906 18.15625 -24.640625 L 18.234375 -19.71875 C 18.234375 -19.632812 18.164062 -19.585938 18.03125 -19.578125 C 17.90625 -19.566406 17.828125 -19.601562 17.796875 -19.6875 C 17.722656 -21.09375 17.296875 -22.1875 16.515625 -22.96875 C 15.742188 -23.757812 14.71875 -24.15625 13.4375 -24.15625 L 11 -24.15625 C 10.0625 -24.15625 9.375 -24.082031 8.9375 -23.9375 C 8.5 -23.789062 8.191406 -23.535156 8.015625 -23.171875 C 7.847656 -22.816406 7.765625 -22.28125 7.765625 -21.5625 L 7.765625 -13.4375 L 12.640625 -13.4375 C 13.921875 -13.4375 14.832031 -13.648438 15.375 -14.078125 C 15.925781 -14.503906 16.203125 -15.222656 16.203125 -16.234375 C 16.203125 -16.285156 16.28125 -16.3125 16.4375 -16.3125 C 16.601562 -16.3125 16.6875 -16.285156 16.6875 -16.234375 L 16.640625 -13 C 16.640625 -12.226562 16.65625 -11.640625 16.6875 -11.234375 L 16.71875 -9.3125 C 16.71875 -9.257812 16.632812 -9.234375 16.46875 -9.234375 C 16.3125 -9.234375 16.234375 -9.257812 16.234375 -9.3125 C 16.234375 -10.488281 15.945312 -11.328125 15.375 -11.828125 C 14.800781 -12.335938 13.847656 -12.59375 12.515625 -12.59375 L 7.765625 -12.59375 L 7.765625 -3.40625 C 7.765625 -2.65625 7.84375 -2.101562 8 -1.75 C 8.15625 -1.40625 8.445312 -1.164062 8.875 -1.03125 C 9.300781 -0.90625 9.96875 -0.84375 10.875 -0.84375 L 14.078125 -0.84375 C 15.359375 -0.84375 16.425781 -1.296875 17.28125 -2.203125 C 18.132812 -3.109375 18.707031 -4.359375 19 -5.953125 Z M 19 -5.953125 "></path></g></g></g><g fill="#000000" fill-opacity="1"><g transform="translate(128.434941, 192.449987)"><g><path d="M 18.234375 -19.71875 C 18.234375 -19.632812 18.164062 -19.585938 18.03125 -19.578125 C 17.90625 -19.566406 17.828125 -19.601562 17.796875 -19.6875 C 17.722656 -21.09375 17.296875 -22.1875 16.515625 -22.96875 C 15.742188 -23.757812 14.71875 -24.15625 13.4375 -24.15625 L 11 -24.15625 C 10.09375 -24.15625 9.410156 -24.085938 8.953125 -23.953125 C 8.503906 -23.828125 8.191406 -23.585938 8.015625 -23.234375 C 7.847656 -22.890625 7.765625 -22.382812 7.765625 -21.71875 L 7.765625 -12.953125 L 11.796875 -12.953125 C 13.210938 -12.953125 14.21875 -13.171875 14.8125 -13.609375 C 15.414062 -14.054688 15.71875 -14.773438 15.71875 -15.765625 C 15.71875 -15.816406 15.796875 -15.84375 15.953125 -15.84375 C 16.117188 -15.84375 16.203125 -15.816406 16.203125 -15.765625 L 16.15625 -12.515625 C 16.15625 -11.742188 16.171875 -11.160156 16.203125 -10.765625 L 16.234375 -8.84375 C 16.234375 -8.789062 16.15625 -8.765625 16 -8.765625 C 15.84375 -8.765625 15.765625 -8.789062 15.765625 -8.84375 C 15.765625 -10.007812 15.445312 -10.847656 14.8125 -11.359375 C 14.1875 -11.867188 13.144531 -12.125 11.6875 -12.125 L 7.765625 -12.125 L 7.765625 -3.40625 C 7.765625 -2.550781 7.875 -1.925781 8.09375 -1.53125 C 8.320312 -1.144531 8.769531 -0.875 9.4375 -0.71875 C 10.101562 -0.5625 11.15625 -0.484375 12.59375 -0.484375 C 12.675781 -0.484375 12.71875 -0.398438 12.71875 -0.234375 C 12.71875 -0.078125 12.675781 0 12.59375 0 C 11.5 0 10.648438 -0.015625 10.046875 -0.046875 L 6.4375 -0.078125 L 3.71875 -0.046875 C 3.238281 -0.015625 2.5625 0 1.6875 0 C 1.625 0 1.59375 -0.078125 1.59375 -0.234375 C 1.59375 -0.398438 1.625 -0.484375 1.6875 -0.484375 C 2.695312 -0.484375 3.441406 -0.546875 3.921875 -0.671875 C 4.398438 -0.804688 4.722656 -1.066406 4.890625 -1.453125 C 5.066406 -1.847656 5.15625 -2.441406 5.15625 -3.234375 L 5.15625 -21.765625 C 5.15625 -22.554688 5.066406 -23.140625 4.890625 -23.515625 C 4.722656 -23.890625 4.40625 -24.148438 3.9375 -24.296875 C 3.46875 -24.441406 2.726562 -24.515625 1.71875 -24.515625 C 1.664062 -24.515625 1.640625 -24.59375 1.640625 -24.75 C 1.640625 -24.914062 1.664062 -25 1.71875 -25 L 17.796875 -25 C 18.035156 -25 18.15625 -24.878906 18.15625 -24.640625 Z M 18.234375 -19.71875 "></path></g></g></g><g fill="#000000" fill-opacity="1"><g transform="translate(153.43291, 192.449987)"><g></g></g></g><g fill="#000000" fill-opacity="1"><g transform="translate(167.431975, 192.449987)"><g><path d="M 27.875 -0.484375 C 27.988281 -0.453125 28.035156 -0.363281 28.015625 -0.21875 C 28.003906 -0.0703125 27.957031 0 27.875 0 L 23.5625 0 C 22.363281 0 20.535156 -0.945312 18.078125 -2.84375 C 15.921875 -0.625 13.226562 0.484375 10 0.484375 C 8.34375 0.484375 6.960938 0.203125 5.859375 -0.359375 C 4.753906 -0.921875 3.925781 -1.65625 3.375 -2.5625 C 2.832031 -3.46875 2.5625 -4.441406 2.5625 -5.484375 C 2.5625 -7.003906 3.035156 -8.328125 3.984375 -9.453125 C 4.929688 -10.585938 6.296875 -11.8125 8.078125 -13.125 C 7.597656 -13.84375 7.210938 -14.507812 6.921875 -15.125 C 6.148438 -16.832031 5.765625 -18.285156 5.765625 -19.484375 C 5.765625 -20.628906 6.039062 -21.6875 6.59375 -22.65625 C 7.15625 -23.632812 7.941406 -24.410156 8.953125 -24.984375 C 9.972656 -25.554688 11.125 -25.84375 12.40625 -25.84375 C 13.675781 -25.84375 14.769531 -25.535156 15.6875 -24.921875 C 16.613281 -24.304688 17.078125 -23.289062 17.078125 -21.875 C 17.078125 -20.832031 16.816406 -19.898438 16.296875 -19.078125 C 15.773438 -18.253906 15.132812 -17.523438 14.375 -16.890625 C 13.613281 -16.265625 12.59375 -15.53125 11.3125 -14.6875 C 11.132812 -14.570312 10.859375 -14.382812 10.484375 -14.125 C 12.316406 -11.164062 15.15625 -8.191406 19 -5.203125 C 19.9375 -6.828125 20.40625 -8.625 20.40625 -10.59375 C 20.40625 -11.5625 20.207031 -12.285156 19.8125 -12.765625 C 19.425781 -13.242188 18.675781 -13.484375 17.5625 -13.484375 C 17.476562 -13.484375 17.429688 -13.5625 17.421875 -13.71875 C 17.410156 -13.875 17.457031 -13.953125 17.5625 -13.953125 L 25.921875 -14 C 26.023438 -14 26.078125 -13.914062 26.078125 -13.75 C 26.078125 -13.59375 26.023438 -13.515625 25.921875 -13.515625 C 25.015625 -13.515625 24.332031 -13.425781 23.875 -13.25 C 23.425781 -13.082031 23.109375 -12.851562 22.921875 -12.5625 C 22.734375 -12.269531 22.546875 -11.800781 22.359375 -11.15625 C 21.585938 -8.519531 20.664062 -6.390625 19.59375 -4.765625 C 21.164062 -3.617188 22.6875 -2.671875 24.15625 -1.921875 C 25.625 -1.171875 26.863281 -0.691406 27.875 -0.484375 Z M 8.078125 -21.203125 C 8.078125 -19.117188 8.769531 -16.914062 10.15625 -14.59375 C 11.625 -15.6875 12.75 -16.742188 13.53125 -17.765625 C 14.320312 -18.796875 14.71875 -19.953125 14.71875 -21.234375 C 14.71875 -22.410156 14.40625 -23.332031 13.78125 -24 C 13.15625 -24.664062 12.304688 -25 11.234375 -25 C 9.128906 -25 8.078125 -23.734375 8.078125 -21.203125 Z M 11.796875 -0.71875 C 14.035156 -0.71875 15.957031 -1.554688 17.5625 -3.234375 L 16.84375 -3.84375 C 15.238281 -5.09375 13.695312 -6.484375 12.21875 -8.015625 C 10.738281 -9.546875 9.46875 -11.070312 8.40625 -12.59375 C 7.363281 -11.769531 6.554688 -10.894531 5.984375 -9.96875 C 5.410156 -9.050781 5.125 -8.019531 5.125 -6.875 C 5.125 -5.757812 5.410156 -4.726562 5.984375 -3.78125 C 6.554688 -2.832031 7.351562 -2.082031 8.375 -1.53125 C 9.40625 -0.988281 10.546875 -0.71875 11.796875 -0.71875 Z M 11.796875 -0.71875 "></path></g></g></g><g fill="#000000" fill-opacity="1"><g transform="translate(199.949204, 192.449987)"><g></g></g></g><g fill="#000000" fill-opacity="1"><g transform="translate(213.948269, 192.449987)"><g><path d="M 5.796875 -20.3125 C 5.796875 -19.28125 6.046875 -18.375 6.546875 -17.59375 C 7.054688 -16.820312 7.675781 -16.175781 8.40625 -15.65625 C 9.144531 -15.132812 10.15625 -14.488281 11.4375 -13.71875 C 12.851562 -12.863281 13.941406 -12.15625 14.703125 -11.59375 C 15.460938 -11.039062 16.113281 -10.328125 16.65625 -9.453125 C 17.207031 -8.585938 17.484375 -7.554688 17.484375 -6.359375 C 17.484375 -5.078125 17.160156 -3.914062 16.515625 -2.875 C 15.878906 -1.832031 14.941406 -1.007812 13.703125 -0.40625 C 12.460938 0.1875 10.972656 0.484375 9.234375 0.484375 C 7.179688 0.484375 5.300781 0.015625 3.59375 -0.921875 C 3.46875 -1.003906 3.382812 -1.097656 3.34375 -1.203125 C 3.300781 -1.304688 3.265625 -1.46875 3.234375 -1.6875 L 2.71875 -7.125 C 2.695312 -7.226562 2.757812 -7.289062 2.90625 -7.3125 C 3.050781 -7.34375 3.132812 -7.304688 3.15625 -7.203125 C 3.582031 -5.273438 4.375 -3.617188 5.53125 -2.234375 C 6.695312 -0.847656 8.238281 -0.15625 10.15625 -0.15625 C 11.488281 -0.15625 12.613281 -0.519531 13.53125 -1.25 C 14.457031 -1.988281 14.921875 -3.160156 14.921875 -4.765625 C 14.921875 -5.960938 14.648438 -7 14.109375 -7.875 C 13.578125 -8.757812 12.929688 -9.488281 12.171875 -10.0625 C 11.421875 -10.632812 10.390625 -11.304688 9.078125 -12.078125 C 7.796875 -12.847656 6.785156 -13.515625 6.046875 -14.078125 C 5.316406 -14.640625 4.695312 -15.347656 4.1875 -16.203125 C 3.6875 -17.054688 3.4375 -18.054688 3.4375 -19.203125 C 3.4375 -20.535156 3.789062 -21.675781 4.5 -22.625 C 5.207031 -23.570312 6.125 -24.273438 7.25 -24.734375 C 8.382812 -25.203125 9.59375 -25.4375 10.875 -25.4375 C 12.445312 -25.4375 14.007812 -25.117188 15.5625 -24.484375 C 15.957031 -24.347656 16.15625 -24.117188 16.15625 -23.796875 L 16.4375 -19.203125 C 16.4375 -19.097656 16.367188 -19.046875 16.234375 -19.046875 C 16.109375 -19.046875 16.03125 -19.097656 16 -19.203125 C 15.789062 -20.585938 15.21875 -21.875 14.28125 -23.0625 C 13.34375 -24.25 11.992188 -24.84375 10.234375 -24.84375 C 8.742188 -24.84375 7.628906 -24.40625 6.890625 -23.53125 C 6.160156 -22.664062 5.796875 -21.59375 5.796875 -20.3125 Z M 5.796875 -20.3125 "></path></g></g></g><g fill="#000000" fill-opacity="1"><g transform="translate(238.226301, 192.449987)"><g><path d="M 19 -5.953125 C 19 -6.015625 19.050781 -6.046875 19.15625 -6.046875 C 19.238281 -6.046875 19.3125 -6.03125 19.375 -6 C 19.445312 -5.96875 19.484375 -5.925781 19.484375 -5.875 C 19.242188 -4.195312 19.125 -2.4375 19.125 -0.59375 C 19.125 -0.382812 19.078125 -0.234375 18.984375 -0.140625 C 18.890625 -0.046875 18.722656 0 18.484375 0 L 1.71875 0 C 1.664062 0 1.640625 -0.078125 1.640625 -0.234375 C 1.640625 -0.398438 1.664062 -0.484375 1.71875 -0.484375 C 2.726562 -0.484375 3.46875 -0.546875 3.9375 -0.671875 C 4.40625 -0.804688 4.722656 -1.066406 4.890625 -1.453125 C 5.066406 -1.847656 5.15625 -2.441406 5.15625 -3.234375 L 5.15625 -21.765625 C 5.15625 -22.554688 5.066406 -23.140625 4.890625 -23.515625 C 4.722656 -23.890625 4.40625 -24.148438 3.9375 -24.296875 C 3.46875 -24.441406 2.726562 -24.515625 1.71875 -24.515625 C 1.664062 -24.515625 1.640625 -24.59375 1.640625 -24.75 C 1.640625 -24.914062 1.664062 -25 1.71875 -25 L 17.796875 -25 C 18.035156 -25 18.15625 -24.878906 18.15625 -24.640625 L 18.234375 -19.71875 C 18.234375 -19.632812 18.164062 -19.585938 18.03125 -19.578125 C 17.90625 -19.566406 17.828125 -19.601562 17.796875 -19.6875 C 17.722656 -21.09375 17.296875 -22.1875 16.515625 -22.96875 C 15.742188 -23.757812 14.71875 -24.15625 13.4375 -24.15625 L 11 -24.15625 C 10.0625 -24.15625 9.375 -24.082031 8.9375 -23.9375 C 8.5 -23.789062 8.191406 -23.535156 8.015625 -23.171875 C 7.847656 -22.816406 7.765625 -22.28125 7.765625 -21.5625 L 7.765625 -13.4375 L 12.640625 -13.4375 C 13.921875 -13.4375 14.832031 -13.648438 15.375 -14.078125 C 15.925781 -14.503906 16.203125 -15.222656 16.203125 -16.234375 C 16.203125 -16.285156 16.28125 -16.3125 16.4375 -16.3125 C 16.601562 -16.3125 16.6875 -16.285156 16.6875 -16.234375 L 16.640625 -13 C 16.640625 -12.226562 16.65625 -11.640625 16.6875 -11.234375 L 16.71875 -9.3125 C 16.71875 -9.257812 16.632812 -9.234375 16.46875 -9.234375 C 16.3125 -9.234375 16.234375 -9.257812 16.234375 -9.3125 C 16.234375 -10.488281 15.945312 -11.328125 15.375 -11.828125 C 14.800781 -12.335938 13.847656 -12.59375 12.515625 -12.59375 L 7.765625 -12.59375 L 7.765625 -3.40625 C 7.765625 -2.65625 7.84375 -2.101562 8 -1.75 C 8.15625 -1.40625 8.445312 -1.164062 8.875 -1.03125 C 9.300781 -0.90625 9.96875 -0.84375 10.875 -0.84375 L 14.078125 -0.84375 C 15.359375 -0.84375 16.425781 -1.296875 17.28125 -2.203125 C 18.132812 -3.109375 18.707031 -4.359375 19 -5.953125 Z M 19 -5.953125 "></path></g></g></g><g fill="#000000" fill-opacity="1"><g transform="translate(264.344189, 192.449987)"><g><path d="M 27.3125 -0.484375 C 27.375 -0.484375 27.40625 -0.398438 27.40625 -0.234375 C 27.40625 -0.078125 27.375 0 27.3125 0 L 22.15625 0 C 21.488281 0 20.234375 -1.101562 18.390625 -3.3125 C 16.554688 -5.53125 14.375 -8.570312 11.84375 -12.4375 C 11.125 -12.28125 10.375 -12.203125 9.59375 -12.203125 C 9.4375 -12.203125 8.835938 -12.238281 7.796875 -12.3125 L 7.796875 -3.234375 C 7.796875 -2.410156 7.875 -1.8125 8.03125 -1.4375 C 8.195312 -1.0625 8.515625 -0.804688 8.984375 -0.671875 C 9.453125 -0.546875 10.191406 -0.484375 11.203125 -0.484375 C 11.273438 -0.484375 11.3125 -0.398438 11.3125 -0.234375 C 11.3125 -0.078125 11.273438 0 11.203125 0 C 10.367188 0 9.710938 -0.015625 9.234375 -0.046875 L 6.484375 -0.078125 L 3.765625 -0.046875 C 3.285156 -0.015625 2.601562 0 1.71875 0 C 1.664062 0 1.640625 -0.078125 1.640625 -0.234375 C 1.640625 -0.398438 1.664062 -0.484375 1.71875 -0.484375 C 2.726562 -0.484375 3.472656 -0.546875 3.953125 -0.671875 C 4.441406 -0.804688 4.769531 -1.066406 4.9375 -1.453125 C 5.113281 -1.847656 5.203125 -2.441406 5.203125 -3.234375 L 5.203125 -21.765625 C 5.203125 -22.554688 5.117188 -23.140625 4.953125 -23.515625 C 4.796875 -23.890625 4.484375 -24.148438 4.015625 -24.296875 C 3.546875 -24.441406 2.804688 -24.515625 1.796875 -24.515625 C 1.722656 -24.515625 1.6875 -24.59375 1.6875 -24.75 C 1.6875 -24.914062 1.722656 -25 1.796875 -25 L 3.765625 -24.953125 C 4.878906 -24.898438 5.785156 -24.875 6.484375 -24.875 C 7.066406 -24.875 7.609375 -24.882812 8.109375 -24.90625 C 8.617188 -24.9375 9.050781 -24.96875 9.40625 -25 C 10.382812 -25.082031 11.273438 -25.125 12.078125 -25.125 C 14.179688 -25.125 15.804688 -24.640625 16.953125 -23.671875 C 18.109375 -22.710938 18.6875 -21.4375 18.6875 -19.84375 C 18.6875 -18.40625 18.265625 -17.101562 17.421875 -15.9375 C 16.578125 -14.78125 15.460938 -13.867188 14.078125 -13.203125 C 16.316406 -9.972656 18.203125 -7.441406 19.734375 -5.609375 C 21.273438 -3.785156 22.632812 -2.472656 23.8125 -1.671875 C 25 -0.878906 26.164062 -0.484375 27.3125 -0.484375 Z M 7.796875 -13.28125 C 8.460938 -13.175781 9.25 -13.125 10.15625 -13.125 C 12.238281 -13.125 13.722656 -13.578125 14.609375 -14.484375 C 15.503906 -15.390625 15.953125 -16.789062 15.953125 -18.6875 C 15.953125 -20.757812 15.492188 -22.25 14.578125 -23.15625 C 13.660156 -24.0625 12.320312 -24.515625 10.5625 -24.515625 C 9.519531 -24.515625 8.796875 -24.328125 8.390625 -23.953125 C 7.992188 -23.585938 7.796875 -22.832031 7.796875 -21.6875 Z M 7.796875 -13.28125 "></path></g></g></g><g fill="#000000" fill-opacity="1"><g transform="translate(293.101679, 192.449987)"><g><path d="M 26.765625 -25 C 26.835938 -25 26.875 -24.914062 26.875 -24.75 C 26.875 -24.59375 26.835938 -24.515625 26.765625 -24.515625 C 25.859375 -24.515625 25.070312 -24.273438 24.40625 -23.796875 C 23.738281 -23.316406 23.175781 -22.503906 22.71875 -21.359375 L 14.203125 -0.046875 C 14.171875 0.0664062 14.023438 0.125 13.765625 0.125 C 13.546875 0.125 13.394531 0.0664062 13.3125 -0.046875 L 3.359375 -21.6875 C 2.910156 -22.71875 2.429688 -23.445312 1.921875 -23.875 C 1.410156 -24.300781 0.753906 -24.515625 -0.046875 -24.515625 C -0.117188 -24.515625 -0.15625 -24.59375 -0.15625 -24.75 C -0.15625 -24.914062 -0.117188 -25 -0.046875 -25 L 1.484375 -24.953125 C 2.222656 -24.898438 2.820312 -24.875 3.28125 -24.875 C 4.34375 -24.875 5.488281 -24.898438 6.71875 -24.953125 L 8.359375 -25 C 8.441406 -25 8.484375 -24.914062 8.484375 -24.75 C 8.484375 -24.59375 8.441406 -24.515625 8.359375 -24.515625 C 6.703125 -24.515625 5.875 -24.050781 5.875 -23.125 C 5.875 -22.800781 5.992188 -22.375 6.234375 -21.84375 L 14.59375 -3.515625 L 21.796875 -21.5625 C 22.015625 -22.125 22.125 -22.5625 22.125 -22.875 C 22.125 -23.4375 21.867188 -23.847656 21.359375 -24.109375 C 20.847656 -24.378906 20.0625 -24.515625 19 -24.515625 C 18.914062 -24.515625 18.875 -24.59375 18.875 -24.75 C 18.875 -24.914062 18.914062 -25 19 -25 L 20.71875 -24.953125 C 21.625 -24.898438 22.453125 -24.875 23.203125 -24.875 C 23.765625 -24.875 24.390625 -24.898438 25.078125 -24.953125 Z M 26.765625 -25 "></path></g></g></g><g fill="#000000" fill-opacity="1"><g transform="translate(324.379021, 192.449987)"><g><path d="M 19 -5.953125 C 19 -6.015625 19.050781 -6.046875 19.15625 -6.046875 C 19.238281 -6.046875 19.3125 -6.03125 19.375 -6 C 19.445312 -5.96875 19.484375 -5.925781 19.484375 -5.875 C 19.242188 -4.195312 19.125 -2.4375 19.125 -0.59375 C 19.125 -0.382812 19.078125 -0.234375 18.984375 -0.140625 C 18.890625 -0.046875 18.722656 0 18.484375 0 L 1.71875 0 C 1.664062 0 1.640625 -0.078125 1.640625 -0.234375 C 1.640625 -0.398438 1.664062 -0.484375 1.71875 -0.484375 C 2.726562 -0.484375 3.46875 -0.546875 3.9375 -0.671875 C 4.40625 -0.804688 4.722656 -1.066406 4.890625 -1.453125 C 5.066406 -1.847656 5.15625 -2.441406 5.15625 -3.234375 L 5.15625 -21.765625 C 5.15625 -22.554688 5.066406 -23.140625 4.890625 -23.515625 C 4.722656 -23.890625 4.40625 -24.148438 3.9375 -24.296875 C 3.46875 -24.441406 2.726562 -24.515625 1.71875 -24.515625 C 1.664062 -24.515625 1.640625 -24.59375 1.640625 -24.75 C 1.640625 -24.914062 1.664062 -25 1.71875 -25 L 17.796875 -25 C 18.035156 -25 18.15625 -24.878906 18.15625 -24.640625 L 18.234375 -19.71875 C 18.234375 -19.632812 18.164062 -19.585938 18.03125 -19.578125 C 17.90625 -19.566406 17.828125 -19.601562 17.796875 -19.6875 C 17.722656 -21.09375 17.296875 -22.1875 16.515625 -22.96875 C 15.742188 -23.757812 14.71875 -24.15625 13.4375 -24.15625 L 11 -24.15625 C 10.0625 -24.15625 9.375 -24.082031 8.9375 -23.9375 C 8.5 -23.789062 8.191406 -23.535156 8.015625 -23.171875 C 7.847656 -22.816406 7.765625 -22.28125 7.765625 -21.5625 L 7.765625 -13.4375 L 12.640625 -13.4375 C 13.921875 -13.4375 14.832031 -13.648438 15.375 -14.078125 C 15.925781 -14.503906 16.203125 -15.222656 16.203125 -16.234375 C 16.203125 -16.285156 16.28125 -16.3125 16.4375 -16.3125 C 16.601562 -16.3125 16.6875 -16.285156 16.6875 -16.234375 L 16.640625 -13 C 16.640625 -12.226562 16.65625 -11.640625 16.6875 -11.234375 L 16.71875 -9.3125 C 16.71875 -9.257812 16.632812 -9.234375 16.46875 -9.234375 C 16.3125 -9.234375 16.234375 -9.257812 16.234375 -9.3125 C 16.234375 -10.488281 15.945312 -11.328125 15.375 -11.828125 C 14.800781 -12.335938 13.847656 -12.59375 12.515625 -12.59375 L 7.765625 -12.59375 L 7.765625 -3.40625 C 7.765625 -2.65625 7.84375 -2.101562 8 -1.75 C 8.15625 -1.40625 8.445312 -1.164062 8.875 -1.03125 C 9.300781 -0.90625 9.96875 -0.84375 10.875 -0.84375 L 14.078125 -0.84375 C 15.359375 -0.84375 16.425781 -1.296875 17.28125 -2.203125 C 18.132812 -3.109375 18.707031 -4.359375 19 -5.953125 Z M 19 -5.953125 "></path></g></g></g><g fill="#000000" fill-opacity="1"><g transform="translate(143.436265, 214.999995)"><g><path d="M 1.421875 0 L 0.3125 0 L 3.515625 -8.734375 L 4.609375 -8.734375 L 7.8125 0 L 6.703125 0 L 5.828125 -2.46875 L 2.296875 -2.46875 Z M 2.625 -3.40625 L 5.484375 -3.40625 L 4.09375 -7.34375 L 4.015625 -7.34375 Z M 2.625 -3.40625 "></path></g></g></g><g fill="#000000" fill-opacity="1"><g transform="translate(151.549805, 214.999995)"><g><path d="M 1.0625 -8.734375 L 2.3125 -8.734375 L 5.28125 -1.484375 L 5.390625 -1.484375 L 8.359375 -8.734375 L 9.609375 -8.734375 L 9.609375 0 L 8.625 0 L 8.625 -6.625 L 8.546875 -6.625 L 5.8125 0 L 4.859375 0 L 2.125 -6.625 L 2.046875 -6.625 L 2.046875 0 L 1.0625 0 Z M 1.0625 -8.734375 "></path></g></g></g><g fill="#000000" fill-opacity="1"><g transform="translate(162.492863, 214.999995)"><g><path d="M 5.828125 -6.546875 C 5.773438 -6.972656 5.566406 -7.304688 5.203125 -7.546875 C 4.835938 -7.785156 4.394531 -7.90625 3.875 -7.90625 C 3.289062 -7.90625 2.820312 -7.769531 2.46875 -7.5 C 2.113281 -7.226562 1.9375 -6.878906 1.9375 -6.453125 C 1.9375 -6.140625 2.03125 -5.890625 2.21875 -5.703125 C 2.414062 -5.515625 2.644531 -5.363281 2.90625 -5.25 C 3.175781 -5.144531 3.414062 -5.066406 3.625 -5.015625 L 4.515625 -4.765625 C 4.742188 -4.710938 5 -4.632812 5.28125 -4.53125 C 5.5625 -4.425781 5.828125 -4.28125 6.078125 -4.09375 C 6.335938 -3.914062 6.550781 -3.6875 6.71875 -3.40625 C 6.882812 -3.125 6.96875 -2.78125 6.96875 -2.375 C 6.96875 -1.894531 6.84375 -1.460938 6.59375 -1.078125 C 6.351562 -0.703125 6 -0.398438 5.53125 -0.171875 C 5.0625 0.046875 4.488281 0.15625 3.8125 0.15625 C 2.875 0.15625 2.128906 -0.0625 1.578125 -0.5 C 1.035156 -0.945312 0.738281 -1.53125 0.6875 -2.25 L 1.765625 -2.25 C 1.796875 -1.914062 1.910156 -1.640625 2.109375 -1.421875 C 2.304688 -1.210938 2.550781 -1.054688 2.84375 -0.953125 C 3.144531 -0.847656 3.46875 -0.796875 3.8125 -0.796875 C 4.21875 -0.796875 4.582031 -0.863281 4.90625 -1 C 5.226562 -1.132812 5.484375 -1.316406 5.671875 -1.546875 C 5.859375 -1.785156 5.953125 -2.066406 5.953125 -2.390625 C 5.953125 -2.679688 5.867188 -2.914062 5.703125 -3.09375 C 5.546875 -3.269531 5.332031 -3.414062 5.0625 -3.53125 C 4.800781 -3.644531 4.515625 -3.742188 4.203125 -3.828125 L 3.140625 -4.140625 C 2.453125 -4.335938 1.910156 -4.617188 1.515625 -4.984375 C 1.117188 -5.347656 0.921875 -5.820312 0.921875 -6.40625 C 0.921875 -6.894531 1.050781 -7.320312 1.3125 -7.6875 C 1.582031 -8.050781 1.941406 -8.332031 2.390625 -8.53125 C 2.835938 -8.738281 3.34375 -8.84375 3.90625 -8.84375 C 4.46875 -8.84375 4.96875 -8.742188 5.40625 -8.546875 C 5.84375 -8.347656 6.1875 -8.070312 6.4375 -7.71875 C 6.695312 -7.375 6.835938 -6.984375 6.859375 -6.546875 Z M 5.828125 -6.546875 "></path></g></g></g><g fill="#000000" fill-opacity="1"><g transform="translate(170.146179, 214.999995)"><g><path d="M 0.578125 -7.796875 L 0.578125 -8.734375 L 7.125 -8.734375 L 7.125 -7.796875 L 4.375 -7.796875 L 4.375 0 L 3.328125 0 L 3.328125 -7.796875 Z M 0.578125 -7.796875 "></path></g></g></g><g fill="#000000" fill-opacity="1"><g transform="translate(177.850638, 214.999995)"><g><path d="M 1.0625 0 L 1.0625 -8.734375 L 6.328125 -8.734375 L 6.328125 -7.796875 L 2.109375 -7.796875 L 2.109375 -4.84375 L 6.046875 -4.84375 L 6.046875 -3.90625 L 2.109375 -3.90625 L 2.109375 -0.9375 L 6.390625 -0.9375 L 6.390625 0 Z M 1.0625 0 "></path></g></g></g><g fill="#000000" fill-opacity="1"><g transform="translate(185.02669, 214.999995)"><g><path d="M 1.0625 0 L 1.0625 -8.734375 L 4 -8.734375 C 4.6875 -8.734375 5.25 -8.613281 5.6875 -8.375 C 6.125 -8.144531 6.445312 -7.828125 6.65625 -7.421875 C 6.863281 -7.023438 6.96875 -6.566406 6.96875 -6.046875 C 6.96875 -5.472656 6.832031 -4.96875 6.5625 -4.53125 C 6.300781 -4.101562 5.894531 -3.796875 5.34375 -3.609375 L 7.3125 0 L 6.078125 0 L 4.25 -3.40625 C 4.175781 -3.40625 4.097656 -3.40625 4.015625 -3.40625 L 2.109375 -3.40625 L 2.109375 0 Z M 2.109375 -4.359375 L 3.984375 -4.359375 C 4.679688 -4.359375 5.179688 -4.507812 5.484375 -4.8125 C 5.785156 -5.113281 5.9375 -5.523438 5.9375 -6.046875 C 5.9375 -6.578125 5.785156 -7 5.484375 -7.3125 C 5.179688 -7.632812 4.675781 -7.796875 3.96875 -7.796875 L 2.109375 -7.796875 Z M 2.109375 -4.359375 "></path></g></g></g><g fill="#000000" fill-opacity="1"><g transform="translate(192.697058, 214.999995)"><g><path d="M 3.75 0 L 1.0625 0 L 1.0625 -8.734375 L 3.875 -8.734375 C 4.71875 -8.734375 5.441406 -8.554688 6.046875 -8.203125 C 6.648438 -7.859375 7.109375 -7.359375 7.421875 -6.703125 C 7.742188 -6.054688 7.90625 -5.28125 7.90625 -4.375 C 7.90625 -3.46875 7.742188 -2.6875 7.421875 -2.03125 C 7.097656 -1.375 6.625 -0.867188 6 -0.515625 C 5.382812 -0.171875 4.632812 0 3.75 0 Z M 2.109375 -0.9375 L 3.6875 -0.9375 C 4.769531 -0.9375 5.570312 -1.242188 6.09375 -1.859375 C 6.625 -2.472656 6.890625 -3.3125 6.890625 -4.375 C 6.890625 -5.4375 6.628906 -6.269531 6.109375 -6.875 C 5.585938 -7.488281 4.816406 -7.796875 3.796875 -7.796875 L 2.109375 -7.796875 Z M 2.109375 -0.9375 "></path></g></g></g><g fill="#000000" fill-opacity="1"><g transform="translate(200.912862, 214.999995)"><g><path d="M 1.421875 0 L 0.3125 0 L 3.515625 -8.734375 L 4.609375 -8.734375 L 7.8125 0 L 6.703125 0 L 5.828125 -2.46875 L 2.296875 -2.46875 Z M 2.625 -3.40625 L 5.484375 -3.40625 L 4.09375 -7.34375 L 4.015625 -7.34375 Z M 2.625 -3.40625 "></path></g></g></g><g fill="#000000" fill-opacity="1"><g transform="translate(209.026402, 214.999995)"><g><path d="M 1.0625 -8.734375 L 2.3125 -8.734375 L 5.28125 -1.484375 L 5.390625 -1.484375 L 8.359375 -8.734375 L 9.609375 -8.734375 L 9.609375 0 L 8.625 0 L 8.625 -6.625 L 8.546875 -6.625 L 5.8125 0 L 4.859375 0 L 2.125 -6.625 L 2.046875 -6.625 L 2.046875 0 L 1.0625 0 Z M 1.0625 -8.734375 "></path></g></g></g></svg>